Coordinates
version=1
nRows=18
nColumns=63
inDegrees=yes

Units are S.I. units (second, meters, Newtons, ...)
If the header above contains a line with 'inDegrees', this indicates whether rotational values are in degrees (yes) or radians (no).

endheader
time	pelvis_tilt	pelvis_list	pelvis_rotation	pelvis_tx	pelvis_ty	pelvis_tz	hip_flexion_r	hip_adduction_r	hip_rotation_r	knee_angle_r	knee_angle_r_beta	ankle_angle_r	subtalar_angle_r	mtp_angle_r	hip_flexion_l	hip_adduction_l	hip_rotation_l	knee_angle_l	knee_angle_l_beta	ankle_angle_l	subtalar_angle_l	mtp_angle_l	L5_S1_Flex_Ext	L5_S1_Lat_Bending	L5_S1_axial_rotation	L4_L5_Flex_Ext	L4_L5_Lat_Bending	L4_L5_axial_rotation	L3_L4_Flex_Ext	L3_L4_Lat_Bending	L3_L4_axial_rotation	L2_L3_Flex_Ext	L2_L3_Lat_Bending	L2_L3_axial_rotation	L1_L2_Flex_Ext	L1_L2_Lat_Bending	L1_L2_axial_rotation	L1_T12_Flex_Ext	L1_T12_Lat_Bending	L1_T12_axial_rotation	Abs_r3	Abs_r2	Abs_r1	Abs_t1	Abs_t2	neck_flexion	neck_bending	neck_rotation	arm_flex_r	arm_add_r	arm_rot_r	elbow_flex_r	pro_sup_r	wrist_flex_r	wrist_dev_r	arm_flex_l	arm_add_l	arm_rot_l	elbow_flex_l	pro_sup_l	wrist_flex_l	wrist_dev_l
1.483333	-3.529762	-1.332655	96.076092	0.267962	0.956700	0.244711	-3.873264	-2.614551	-16.248775	3.750961	0.065467	16.978317	13.310162	0.000000	-2.112811	4.062848	2.340262	4.887544	0.085304	10.062696	-10.699329	0.000000	-0.036571	-0.779159	0.319675	-0.067916	-1.036282	0.339655	-0.060082	-1.894447	0.339655	-0.041797	-1.894447	0.279716	-0.033960	-1.588861	0.259736	-0.020897	-1.206917	0.239756	-0.261222	-8.814003	1.777936	0.000000	0.000000	5.219675	6.002073	-13.237488	19.051490	2.492660	18.754034	138.120809	88.876421	-10.941528	9.204594	16.951913	-9.621620	92.361223	33.013163	41.106198	-4.929503	-2.656982
1.500000	-3.547269	-1.404133	96.087285	0.268052	0.956596	0.244632	-3.794679	-2.630613	-16.253820	3.693346	0.064461	17.128770	13.431014	0.000000	-2.035468	4.083256	2.290874	4.925945	0.085974	10.034088	-10.755721	0.000000	-0.029742	-0.784396	0.354949	-0.055234	-1.043247	0.377133	-0.048864	-1.907180	0.377133	-0.033992	-1.907180	0.310580	-0.027619	-1.599540	0.288396	-0.016995	-1.215029	0.266211	-0.212446	-8.873244	1.974117	0.000000	0.000000	5.283332	5.974086	-13.327546	18.703430	2.522365	18.500893	138.487591	88.872601	-11.009191	9.260576	17.067071	-9.620200	92.644508	33.080255	41.007199	-5.024856	-2.719228
1.516667	-3.568378	-1.453591	96.085032	0.268100	0.956525	0.244615	-3.732965	-2.652202	-16.258928	3.624500	0.063259	17.280740	13.567857	0.000000	-1.992358	4.122267	2.424527	4.901025	0.085539	10.002157	-11.065910	0.000000	-0.025418	-0.788059	0.379211	-0.047204	-1.048119	0.402912	-0.041760	-1.916088	0.402912	-0.029051	-1.916088	0.331810	-0.023603	-1.607011	0.308109	-0.014524	-1.220704	0.284408	-0.181561	-8.914686	2.109057	0.000000	0.000000	5.332666	5.954762	-13.329232	18.538005	2.503460	18.373511	138.675653	88.869611	-11.062343	9.239369	17.139252	-9.642278	92.762027	33.179855	40.970491	-5.150003	-2.763112
1.533333	-3.595215	-1.470808	96.059789	0.268139	0.956506	0.244695	-3.689324	-2.678766	-16.168299	3.559416	0.062124	17.411537	13.580252	0.000000	-1.965257	4.170147	2.438396	4.870594	0.085008	10.105082	-11.190606	0.000000	-0.025534	-0.790777	0.392155	-0.047418	-1.051733	0.416665	-0.041949	-1.922695	0.416665	-0.029182	-1.922695	0.343136	-0.023710	-1.612552	0.318626	-0.014590	-1.224914	0.294116	-0.182384	-8.945427	2.181050	0.000000	0.000000	5.380612	5.987166	-13.250846	18.559858	2.461769	18.340613	138.665344	88.882790	-10.984458	9.155376	17.153745	-9.689727	92.631490	33.302333	41.076689	-5.296103	-2.736801
1.550000	-3.620913	-1.465868	96.021483	0.268117	0.956507	0.244828	-3.663175	-2.712051	-16.142287	3.492836	0.060961	17.523685	13.697480	0.000000	-1.974870	4.233722	2.672931	4.777263	0.083379	10.149677	-11.631569	0.000000	-0.026797	-0.791384	0.391900	-0.049765	-1.052541	0.416393	-0.044025	-1.924171	0.416393	-0.030626	-1.924171	0.342912	-0.024884	-1.613790	0.318418	-0.015312	-1.225854	0.293925	-0.191409	-8.952293	2.179628	0.000000	0.000000	5.394677	6.021838	-13.116838	18.764421	2.375965	18.464010	138.485200	88.896899	-10.989623	9.072685	17.132662	-9.743317	92.400697	33.411279	41.247396	-5.388026	-2.712064
1.566667	-3.651156	-1.437543	95.974328	0.268069	0.956537	0.245020	-3.654795	-2.752795	-16.109855	3.433117	0.059919	17.583804	13.792292	0.000000	-2.015904	4.310433	3.019950	4.641738	0.081014	10.155223	-12.212297	0.000000	-0.030039	-0.791218	0.379425	-0.055785	-1.052320	0.403139	-0.049350	-1.923768	0.403139	-0.034331	-1.923768	0.331997	-0.027894	-1.613452	0.308283	-0.017164	-1.225597	0.284569	-0.214562	-8.950418	2.110250	0.000000	0.000000	5.378053	6.073192	-12.950672	19.105538	2.279716	18.675287	138.146205	88.911399	-10.895765	8.954400	17.060985	-9.815864	91.999084	33.524918	41.534901	-5.459418	-2.645276
1.583333	-3.687216	-1.395698	95.926816	0.268000	0.956584	0.245220	-3.661500	-2.802637	-16.108926	3.383772	0.059058	17.580828	13.892986	0.000000	-2.080298	4.398334	3.451013	4.473915	0.078085	10.120096	-12.877437	0.000000	-0.033487	-0.791127	0.359540	-0.062189	-1.052198	0.382012	-0.055016	-1.923545	0.382012	-0.038272	-1.923545	0.314598	-0.031096	-1.613265	0.292127	-0.019134	-1.225455	0.269655	-0.239194	-8.949383	1.999656	0.000000	0.000000	5.332095	6.120645	-12.813693	19.511692	2.184800	18.941338	137.713314	88.923052	-10.740806	8.823632	16.965090	-9.895857	91.550965	33.631391	41.842732	-5.496618	-2.557551
1.600000	-3.727932	-1.349542	95.880499	0.267934	0.956644	0.245410	-3.673485	-2.860508	-16.151928	3.355815	0.058570	17.506195	13.994172	0.000000	-2.155615	4.492540	3.919296	4.288744	0.074853	10.038546	-13.571905	0.000000	-0.036271	-0.791735	0.337766	-0.067358	-1.053007	0.358877	-0.059589	-1.925024	0.358877	-0.041454	-1.925024	0.295546	-0.033681	-1.614505	0.274435	-0.020725	-1.226397	0.253325	-0.259078	-8.956261	1.878555	0.000000	0.000000	5.258878	6.152024	-12.757925	19.923183	2.099205	19.220825	137.251198	88.927392	-10.556969	8.709133	16.856720	-9.977782	91.091699	33.725137	42.173412	-5.491909	-2.451642
1.616667	-3.775478	-1.307157	95.836159	0.267885	0.956713	0.245571	-3.685890	-2.927815	-16.215524	3.351227	0.058490	17.360195	14.062975	0.000000	-2.230242	4.591368	4.363851	4.102431	0.071601	9.924776	-14.214605	0.000000	-0.037495	-0.794010	0.319230	-0.069632	-1.056033	0.339182	-0.061601	-1.930555	0.339182	-0.042853	-1.930555	0.279326	-0.034818	-1.619145	0.259374	-0.021425	-1.229921	0.239422	-0.267823	-8.981997	1.775461	0.000000	0.000000	5.152386	6.164947	-12.831985	20.284976	2.026433	19.469437	136.817974	88.921247	-10.386523	8.633802	16.757664	-10.055363	90.706042	33.803808	42.464172	-5.448704	-2.342604
1.633333	-3.826207	-1.270918	95.801701	0.267849	0.956786	0.245689	-3.697979	-3.000868	-16.349976	3.373624	0.058881	17.168972	14.156422	0.000000	-2.307622	4.692166	4.841182	3.909016	0.068225	9.741543	-14.908340	0.000000	-0.037016	-0.797654	0.304123	-0.068743	-1.060880	0.323130	-0.060814	-1.939417	0.323130	-0.042306	-1.939417	0.266107	-0.034373	-1.626577	0.247100	-0.021151	-1.235567	0.228092	-0.264404	-9.023227	1.691439	0.000000	0.000000	5.012690	6.160727	-13.017640	20.562105	1.976346	19.668765	136.446452	88.901532	-10.300820	8.581233	16.678585	-10.121723	90.452816	33.866116	42.616541	-5.383440	-2.251243
1.650000	-3.880139	-1.244420	95.785369	0.267829	0.956855	0.245764	-3.709435	-3.077092	-16.536280	3.417246	0.059642	16.949632	14.251018	0.000000	-2.376357	4.790618	5.282204	3.728866	0.065081	9.533073	-15.547028	0.000000	-0.034905	-0.802990	0.292054	-0.064823	-1.067977	0.310308	-0.057346	-1.952391	0.310308	-0.039893	-1.952391	0.255547	-0.032413	-1.637458	0.237294	-0.019945	-1.243832	0.219041	-0.249325	-9.083589	1.624318	0.000000	0.000000	4.846304	6.147492	-13.304395	20.723107	1.959544	19.788871	136.178175	88.871612	-10.328083	8.603975	16.620863	-10.178130	90.320524	33.912975	42.649911	-5.285329	-2.170207
1.666667	-3.939177	-1.231278	95.778203	0.267841	0.956912	0.245794	-3.715904	-3.158308	-16.749943	3.477582	0.060695	16.723898	14.338431	0.000000	-2.432210	4.888508	5.662400	3.566937	0.062255	9.320074	-16.114934	0.000000	-0.031034	-0.810424	0.286306	-0.057633	-1.077864	0.304201	-0.050986	-1.970465	0.304201	-0.035469	-1.970465	0.250518	-0.028818	-1.652617	0.232624	-0.017733	-1.255347	0.214730	-0.221673	-9.167680	1.592350	0.000000	0.000000	4.663110	6.139764	-13.681760	20.741436	1.983227	19.817362	136.040396	88.836108	-10.535086	8.696179	16.584354	-10.222694	90.294566	33.943208	42.583200	-5.158334	-2.092653
1.683333	-4.004074	-1.233086	95.787800	0.267880	0.956950	0.245778	-3.718873	-3.242849	-16.979972	3.543403	0.061844	16.508369	14.422735	0.000000	-2.470981	4.985252	5.966112	3.428210	0.059834	9.114657	-16.588022	0.000000	-0.025655	-0.820040	0.286122	-0.047644	-1.090653	0.304005	-0.042148	-1.993845	0.304005	-0.029321	-1.993845	0.250357	-0.023823	-1.672225	0.232474	-0.014659	-1.270242	0.214592	-0.183250	-9.276453	1.591327	0.000000	0.000000	4.482666	6.145007	-14.124486	20.602576	2.053555	19.747164	136.041786	88.799866	-10.912629	8.837787	16.577870	-10.253942	90.401919	33.961338	42.380138	-5.018810	-2.025792
1.700000	-4.067594	-1.244349	95.794104	0.267979	0.956976	0.245712	-3.721223	-3.319506	-17.122491	3.604503	0.062910	16.301814	14.405764	0.000000	-2.489286	5.064774	6.019323	3.332538	0.058164	8.994322	-16.733168	0.000000	-0.019613	-0.830793	0.293510	-0.036424	-1.104954	0.311854	-0.032223	-2.019989	0.311854	-0.022416	-2.019989	0.256821	-0.018213	-1.694152	0.238477	-0.011207	-1.286898	0.220132	-0.140096	-9.398092	1.632413	0.000000	0.000000	4.322769	6.187397	-14.597554	20.313212	2.173642	19.563352	136.160446	88.766781	-11.333302	8.973803	16.580707	-10.278481	90.556203	33.975415	42.103771	-4.883324	-1.956442
1.716667	-4.133527	-1.272771	95.833285	0.268073	0.956970	0.245606	-3.720512	-3.394943	-17.297534	3.654735	0.063787	16.131967	14.424042	0.000000	-2.486630	5.142875	6.066951	3.258840	0.056877	8.871849	-16.858883	0.000000	-0.012124	-0.842918	0.303009	-0.022516	-1.121081	0.321947	-0.019919	-2.049470	0.321947	-0.013857	-2.049470	0.265133	-0.011259	-1.718878	0.246195	-0.006928	-1.305680	0.227257	-0.086603	-9.535255	1.685246	0.000000	0.000000	4.176810	6.226678	-15.095139	19.905880	2.314787	19.310752	136.403569	88.735115	-11.864897	9.158102	16.618790	-10.290267	90.866676	33.977586	41.720622	-4.755385	-1.928176
1.733333	-4.198576	-1.309114	95.867182	0.268186	0.956943	0.245468	-3.716798	-3.467902	-17.440749	3.694933	0.064489	15.993721	14.446452	0.000000	-2.472903	5.216298	6.054759	3.204605	0.055931	8.761756	-16.923909	0.000000	-0.004344	-0.855247	0.319563	-0.008067	-1.137479	0.339536	-0.007137	-2.079448	0.339536	-0.004965	-2.079448	0.279618	-0.004034	-1.744020	0.259645	-0.002482	-1.324778	0.239672	-0.031029	-9.674729	1.777313	0.000000	0.000000	4.059284	6.258804	-15.580754	19.434381	2.445658	19.012389	136.726639	88.702048	-12.380750	9.325313	16.689200	-10.285685	91.330539	33.972322	41.211944	-4.682346	-1.969471
1.750000	-4.252876	-1.355363	95.911421	0.268288	0.956892	0.245327	-3.704254	-3.527557	-17.566766	3.728723	0.065078	15.886553	14.456838	0.000000	-2.435013	5.273414	5.959771	3.183478	0.055562	8.705419	-16.859096	0.000000	0.004118	-0.866476	0.339659	0.007648	-1.152414	0.360887	0.006766	-2.106751	0.360887	0.004707	-2.106751	0.297201	0.003824	-1.766919	0.275973	0.002353	-1.342172	0.254744	0.029417	-9.801754	1.889080	0.000000	0.000000	3.973074	6.286670	-16.037187	18.952696	2.548263	18.701848	137.102121	88.672786	-12.876806	9.487087	16.786682	-10.259503	91.907551	33.947265	40.647637	-4.637784	-2.059157
1.766667	-4.293524	-1.405764	95.951855	0.268375	0.956819	0.245191	-3.681264	-3.573993	-17.664341	3.764449	0.065702	15.817431	14.460168	0.000000	-2.380757	5.313058	5.792871	3.188312	0.055647	8.719337	-16.683542	0.000000	0.012777	-0.875670	0.361269	0.023729	-1.164642	0.383848	0.020992	-2.129105	0.383848	0.014603	-2.129105	0.316110	0.011865	-1.785667	0.293531	0.007301	-1.356414	0.270951	0.091268	-9.905759	2.009267	0.000000	0.000000	3.916062	6.305763	-16.430474	18.533453	2.593912	18.432136	137.476105	88.645890	-13.317541	9.596735	16.893340	-10.219393	92.522881	33.911427	40.085996	-4.628139	-2.181403
